<?xml version="1.0" encoding="UTF-8" standalone="no"?>
<!DOCTYPE svg PUBLIC "-//W3C//DTD SVG 1.1//EN"
 "http://www.w3.org/Graphics/SVG/1.1/DTD/svg11.dtd">
<!-- Generated by graphviz version 2.36.0 (20140111.2315)
 -->
<!-- Title: controllers_diagram Pages: 1 -->
<svg width="503pt" height="672pt"
 viewBox="0.00 0.00 503.00 672.00" xmlns="http://www.w3.org/2000/svg" xmlns:xlink="http://www.w3.org/1999/xlink">
<g id="graph0" class="graph" transform="scale(1 1) rotate(0) translate(4 668)">
<title>controllers_diagram</title>
<polygon fill="none" stroke="none" points="-4,4 -4,-668 499,-668 499,4 -4,4"/>
<!-- _diagram_info -->
<g id="node1" class="node"><title>_diagram_info</title>
<text text-anchor="start" x="144" y="-454.6" font-family="Times,serif" font-size="13.00">Controllers diagram</text>
<text text-anchor="start" x="144" y="-440.6" font-family="Times,serif" font-size="13.00">Date: Mar 17 2016 &#45; 21:17</text>
<text text-anchor="start" x="144" y="-426.6" font-family="Times,serif" font-size="13.00">Migration version: 20160317211305</text>
<text text-anchor="start" x="144" y="-412.6" font-family="Times,serif" font-size="13.00">Generated by RailRoady 1.4.2</text>
<text text-anchor="start" x="144" y="-398.6" font-family="Times,serif" font-size="13.00">http://railroady.prestonlee.com</text>
</g>
<!-- SessionsController -->
<g id="node2" class="node"><title>SessionsController</title>
<path fill="none" stroke="black" d="M250,-510.5C250,-510.5 345,-510.5 345,-510.5 351,-510.5 357,-516.5 357,-522.5 357,-522.5 357,-651.5 357,-651.5 357,-657.5 351,-663.5 345,-663.5 345,-663.5 250,-663.5 250,-663.5 244,-663.5 238,-657.5 238,-651.5 238,-651.5 238,-522.5 238,-522.5 238,-516.5 244,-510.5 250,-510.5"/>
<text text-anchor="middle" x="297.5" y="-648.3" font-family="Times,serif" font-size="14.00">SessionsController</text>
<polyline fill="none" stroke="black" points="238,-640.5 357,-640.5 "/>
<text text-anchor="start" x="246" y="-625.3" font-family="Times,serif" font-size="14.00">create</text>
<text text-anchor="start" x="246" y="-610.3" font-family="Times,serif" font-size="14.00">destroy</text>
<text text-anchor="start" x="246" y="-595.3" font-family="Times,serif" font-size="14.00">failure</text>
<text text-anchor="start" x="246" y="-580.3" font-family="Times,serif" font-size="14.00">new</text>
<text text-anchor="start" x="246" y="-565.3" font-family="Times,serif" font-size="14.00">test</text>
<polyline fill="none" stroke="black" points="238,-557.5 357,-557.5 "/>
<polyline fill="none" stroke="black" points="238,-533.5 357,-533.5 "/>
<text text-anchor="start" x="246" y="-518.3" font-family="Times,serif" font-size="14.00">_layout</text>
</g>
<!-- UsersController -->
<g id="node3" class="node"><title>UsersController</title>
<path fill="none" stroke="black" d="M369,-153.5C369,-153.5 479,-153.5 479,-153.5 485,-153.5 491,-159.5 491,-165.5 491,-165.5 491,-339.5 491,-339.5 491,-345.5 485,-351.5 479,-351.5 479,-351.5 369,-351.5 369,-351.5 363,-351.5 357,-345.5 357,-339.5 357,-339.5 357,-165.5 357,-165.5 357,-159.5 363,-153.5 369,-153.5"/>
<text text-anchor="middle" x="424" y="-336.3" font-family="Times,serif" font-size="14.00">UsersController</text>
<polyline fill="none" stroke="black" points="357,-328.5 491,-328.5 "/>
<text text-anchor="start" x="365" y="-313.3" font-family="Times,serif" font-size="14.00">add_user</text>
<text text-anchor="start" x="365" y="-298.3" font-family="Times,serif" font-size="14.00">confirm_users</text>
<text text-anchor="start" x="365" y="-283.3" font-family="Times,serif" font-size="14.00">create</text>
<text text-anchor="start" x="365" y="-268.3" font-family="Times,serif" font-size="14.00">get_all</text>
<text text-anchor="start" x="365" y="-253.3" font-family="Times,serif" font-size="14.00">new</text>
<text text-anchor="start" x="365" y="-238.3" font-family="Times,serif" font-size="14.00">upload</text>
<polyline fill="none" stroke="black" points="357,-230.5 491,-230.5 "/>
<polyline fill="none" stroke="black" points="357,-206.5 491,-206.5 "/>
<text text-anchor="start" x="365" y="-191.3" font-family="Times,serif" font-size="14.00">_layout</text>
<text text-anchor="start" x="365" y="-176.3" font-family="Times,serif" font-size="14.00">get_current_uploaded</text>
<text text-anchor="start" x="365" y="-161.3" font-family="Times,serif" font-size="14.00">user_params</text>
</g>
<!-- ShiftsController -->
<g id="node4" class="node"><title>ShiftsController</title>
<path fill="none" stroke="black" d="M403,-391.5C403,-391.5 483,-391.5 483,-391.5 489,-391.5 495,-397.5 495,-403.5 495,-403.5 495,-592.5 495,-592.5 495,-598.5 489,-604.5 483,-604.5 483,-604.5 403,-604.5 403,-604.5 397,-604.5 391,-598.5 391,-592.5 391,-592.5 391,-403.5 391,-403.5 391,-397.5 397,-391.5 403,-391.5"/>
<text text-anchor="middle" x="443" y="-589.3" font-family="Times,serif" font-size="14.00">ShiftsController</text>
<polyline fill="none" stroke="black" points="391,-581.5 495,-581.5 "/>
<text text-anchor="start" x="399" y="-566.3" font-family="Times,serif" font-size="14.00">create</text>
<text text-anchor="start" x="399" y="-551.3" font-family="Times,serif" font-size="14.00">destroy</text>
<text text-anchor="start" x="399" y="-536.3" font-family="Times,serif" font-size="14.00">edit</text>
<text text-anchor="start" x="399" y="-521.3" font-family="Times,serif" font-size="14.00">index</text>
<text text-anchor="start" x="399" y="-506.3" font-family="Times,serif" font-size="14.00">new</text>
<text text-anchor="start" x="399" y="-491.3" font-family="Times,serif" font-size="14.00">show</text>
<text text-anchor="start" x="399" y="-476.3" font-family="Times,serif" font-size="14.00">update</text>
<polyline fill="none" stroke="black" points="391,-468.5 495,-468.5 "/>
<polyline fill="none" stroke="black" points="391,-444.5 495,-444.5 "/>
<text text-anchor="start" x="399" y="-429.3" font-family="Times,serif" font-size="14.00">_layout</text>
<text text-anchor="start" x="399" y="-414.3" font-family="Times,serif" font-size="14.00">set_shift</text>
<text text-anchor="start" x="399" y="-399.3" font-family="Times,serif" font-size="14.00">shift_params</text>
</g>
<!-- PoliciesController -->
<g id="node5" class="node"><title>PoliciesController</title>
<path fill="none" stroke="black" d="M46,-170.5C46,-170.5 137,-170.5 137,-170.5 143,-170.5 149,-176.5 149,-182.5 149,-182.5 149,-341.5 149,-341.5 149,-347.5 143,-353.5 137,-353.5 137,-353.5 46,-353.5 46,-353.5 40,-353.5 34,-347.5 34,-341.5 34,-341.5 34,-182.5 34,-182.5 34,-176.5 40,-170.5 46,-170.5"/>
<text text-anchor="middle" x="91.5" y="-338.3" font-family="Times,serif" font-size="14.00">PoliciesController</text>
<polyline fill="none" stroke="black" points="34,-330.5 149,-330.5 "/>
<text text-anchor="start" x="42" y="-315.3" font-family="Times,serif" font-size="14.00">create</text>
<text text-anchor="start" x="42" y="-300.3" font-family="Times,serif" font-size="14.00">edit</text>
<text text-anchor="start" x="42" y="-285.3" font-family="Times,serif" font-size="14.00">new</text>
<text text-anchor="start" x="42" y="-270.3" font-family="Times,serif" font-size="14.00">show</text>
<text text-anchor="start" x="42" y="-255.3" font-family="Times,serif" font-size="14.00">update</text>
<polyline fill="none" stroke="black" points="34,-247.5 149,-247.5 "/>
<polyline fill="none" stroke="black" points="34,-223.5 149,-223.5 "/>
<text text-anchor="start" x="42" y="-208.3" font-family="Times,serif" font-size="14.00">_layout</text>
<text text-anchor="start" x="42" y="-193.3" font-family="Times,serif" font-size="14.00">policy_params</text>
<text text-anchor="start" x="42" y="-178.3" font-family="Times,serif" font-size="14.00">set_policy</text>
</g>
<!-- ApplicationController -->
<g id="node6" class="node"><title>ApplicationController</title>
<path fill="none" stroke="black" d="M12,-0.5C12,-0.5 124,-0.5 124,-0.5 130,-0.5 136,-6.5 136,-12.5 136,-12.5 136,-126.5 136,-126.5 136,-132.5 130,-138.5 124,-138.5 124,-138.5 12,-138.5 12,-138.5 6,-138.5 0,-132.5 0,-126.5 0,-126.5 0,-12.5 0,-12.5 0,-6.5 6,-0.5 12,-0.5"/>
<text text-anchor="middle" x="68" y="-123.3" font-family="Times,serif" font-size="14.00">ApplicationController</text>
<polyline fill="none" stroke="black" points="0,-115.5 136,-115.5 "/>
<polyline fill="none" stroke="black" points="0,-91.5 136,-91.5 "/>
<text text-anchor="start" x="8" y="-76.3" font-family="Times,serif" font-size="14.00">authorize</text>
<text text-anchor="start" x="8" y="-61.3" font-family="Times,serif" font-size="14.00">current_house</text>
<text text-anchor="start" x="8" y="-46.3" font-family="Times,serif" font-size="14.00">current_user</text>
<text text-anchor="start" x="8" y="-31.3" font-family="Times,serif" font-size="14.00">set_current_user</text>
<polyline fill="none" stroke="black" points="0,-23.5 136,-23.5 "/>
<text text-anchor="start" x="8" y="-8.3" font-family="Times,serif" font-size="14.00">_layout</text>
</g>
<!-- MetashiftsController -->
<g id="node7" class="node"><title>MetashiftsController</title>
<path fill="none" stroke="black" d="M199,-136.5C199,-136.5 305,-136.5 305,-136.5 311,-136.5 317,-142.5 317,-148.5 317,-148.5 317,-337.5 317,-337.5 317,-343.5 311,-349.5 305,-349.5 305,-349.5 199,-349.5 199,-349.5 193,-349.5 187,-343.5 187,-337.5 187,-337.5 187,-148.5 187,-148.5 187,-142.5 193,-136.5 199,-136.5"/>
<text text-anchor="middle" x="252" y="-334.3" font-family="Times,serif" font-size="14.00">MetashiftsController</text>
<polyline fill="none" stroke="black" points="187,-326.5 317,-326.5 "/>
<text text-anchor="start" x="195" y="-311.3" font-family="Times,serif" font-size="14.00">create</text>
<text text-anchor="start" x="195" y="-296.3" font-family="Times,serif" font-size="14.00">destroy</text>
<text text-anchor="start" x="195" y="-281.3" font-family="Times,serif" font-size="14.00">edit</text>
<text text-anchor="start" x="195" y="-266.3" font-family="Times,serif" font-size="14.00">index</text>
<text text-anchor="start" x="195" y="-251.3" font-family="Times,serif" font-size="14.00">new</text>
<text text-anchor="start" x="195" y="-236.3" font-family="Times,serif" font-size="14.00">show</text>
<text text-anchor="start" x="195" y="-221.3" font-family="Times,serif" font-size="14.00">update</text>
<polyline fill="none" stroke="black" points="187,-213.5 317,-213.5 "/>
<polyline fill="none" stroke="black" points="187,-189.5 317,-189.5 "/>
<text text-anchor="start" x="195" y="-174.3" font-family="Times,serif" font-size="14.00">_layout</text>
<text text-anchor="start" x="195" y="-159.3" font-family="Times,serif" font-size="14.00">metashift_params</text>
<text text-anchor="start" x="195" y="-144.3" font-family="Times,serif" font-size="14.00">set_metashift</text>
</g>
<!-- WorkshiftController -->
<g id="node8" class="node"><title>WorkshiftController</title>
<path fill="none" stroke="black" d="M369,-34.5C369,-34.5 473,-34.5 473,-34.5 479,-34.5 485,-40.5 485,-46.5 485,-46.5 485,-115.5 485,-115.5 485,-121.5 479,-127.5 473,-127.5 473,-127.5 369,-127.5 369,-127.5 363,-127.5 357,-121.5 357,-115.5 357,-115.5 357,-46.5 357,-46.5 357,-40.5 363,-34.5 369,-34.5"/>
<text text-anchor="middle" x="421" y="-112.3" font-family="Times,serif" font-size="14.00">WorkshiftController</text>
<polyline fill="none" stroke="black" points="357,-104.5 485,-104.5 "/>
<text text-anchor="start" x="365" y="-89.3" font-family="Times,serif" font-size="14.00">index</text>
<polyline fill="none" stroke="black" points="357,-81.5 485,-81.5 "/>
<polyline fill="none" stroke="black" points="357,-57.5 485,-57.5 "/>
<text text-anchor="start" x="365" y="-42.3" font-family="Times,serif" font-size="14.00">_layout</text>
</g>
</g>
</svg>
