<?xml version="1.0" encoding="UTF-8" standalone="no"?>
<!DOCTYPE svg PUBLIC "-//W3C//DTD SVG 1.1//EN"
 "http://www.w3.org/Graphics/SVG/1.1/DTD/svg11.dtd">
<!-- Generated by graphviz version 2.36.0 (20140111.2315)
 -->
<!-- Title: models_diagram Pages: 1 -->
<svg width="487pt" height="538pt"
 viewBox="0.00 0.00 487.00 538.00" xmlns="http://www.w3.org/2000/svg" xmlns:xlink="http://www.w3.org/1999/xlink">
<g id="graph0" class="graph" transform="scale(1 1) rotate(0) translate(4 534)">
<title>models_diagram</title>
<polygon fill="none" stroke="none" points="-4,4 -4,-534 483,-534 483,4 -4,4"/>
<!-- _diagram_info -->
<g id="node1" class="node"><title>_diagram_info</title>
<text text-anchor="start" x="19" y="-493.6" font-family="Times,serif" font-size="13.00">Models diagram</text>
<text text-anchor="start" x="19" y="-479.6" font-family="Times,serif" font-size="13.00">Date: Mar 17 2016 &#45; 21:17</text>
<text text-anchor="start" x="19" y="-465.6" font-family="Times,serif" font-size="13.00">Migration version: 20160317211305</text>
<text text-anchor="start" x="19" y="-451.6" font-family="Times,serif" font-size="13.00">Generated by RailRoady 1.4.2</text>
<text text-anchor="start" x="19" y="-437.6" font-family="Times,serif" font-size="13.00">http://railroady.prestonlee.com</text>
</g>
<!-- Metashift -->
<g id="node2" class="node"><title>Metashift</title>
<path fill="none" stroke="black" d="M11.5,-212.5C11.5,-212.5 118.5,-212.5 118.5,-212.5 124.5,-212.5 130.5,-218.5 130.5,-224.5 130.5,-224.5 130.5,-321.5 130.5,-321.5 130.5,-327.5 124.5,-333.5 118.5,-333.5 118.5,-333.5 11.5,-333.5 11.5,-333.5 5.5,-333.5 -0.5,-327.5 -0.5,-321.5 -0.5,-321.5 -0.5,-224.5 -0.5,-224.5 -0.5,-218.5 5.5,-212.5 11.5,-212.5"/>
<text text-anchor="middle" x="65" y="-318.3" font-family="Times,serif" font-size="14.00">Metashift</text>
<polyline fill="none" stroke="black" points="-0.5,-310.5 130.5,-310.5 "/>
<text text-anchor="start" x="7.5" y="-295.3" font-family="Times,serif" font-size="14.00">id :INTEGER</text>
<text text-anchor="start" x="7.5" y="-280.3" font-family="Times,serif" font-size="14.00">category :varchar</text>
<text text-anchor="start" x="7.5" y="-265.3" font-family="Times,serif" font-size="14.00">description :varchar</text>
<text text-anchor="start" x="7.5" y="-250.3" font-family="Times,serif" font-size="14.00">multiplier :float</text>
<text text-anchor="start" x="7.5" y="-235.3" font-family="Times,serif" font-size="14.00">created_at :datetime</text>
<text text-anchor="start" x="7.5" y="-220.3" font-family="Times,serif" font-size="14.00">updated_at :datetime</text>
</g>
<!-- Shift -->
<g id="node5" class="node"><title>Shift</title>
<path fill="none" stroke="black" d="M176.5,-1C176.5,-1 283.5,-1 283.5,-1 289.5,-1 295.5,-7 295.5,-13 295.5,-13 295.5,-125 295.5,-125 295.5,-131 289.5,-137 283.5,-137 283.5,-137 176.5,-137 176.5,-137 170.5,-137 164.5,-131 164.5,-125 164.5,-125 164.5,-13 164.5,-13 164.5,-7 170.5,-1 176.5,-1"/>
<text text-anchor="middle" x="230" y="-121.8" font-family="Times,serif" font-size="14.00">Shift</text>
<polyline fill="none" stroke="black" points="164.5,-114 295.5,-114 "/>
<text text-anchor="start" x="172.5" y="-98.8" font-family="Times,serif" font-size="14.00">id :INTEGER</text>
<text text-anchor="start" x="172.5" y="-83.8" font-family="Times,serif" font-size="14.00">start_time :datetime</text>
<text text-anchor="start" x="172.5" y="-68.8" font-family="Times,serif" font-size="14.00">end_time :datetime</text>
<text text-anchor="start" x="172.5" y="-53.8" font-family="Times,serif" font-size="14.00">metashift_id :integer</text>
<text text-anchor="start" x="172.5" y="-38.8" font-family="Times,serif" font-size="14.00">created_at :datetime</text>
<text text-anchor="start" x="172.5" y="-23.8" font-family="Times,serif" font-size="14.00">updated_at :datetime</text>
<text text-anchor="start" x="172.5" y="-8.8" font-family="Times,serif" font-size="14.00">user_id :integer</text>
</g>
<!-- Metashift&#45;&gt;Shift -->
<g id="edge1" class="edge"><title>Metashift&#45;&gt;Shift</title>
<path fill="none" stroke="#8ab67a" d="M114.542,-206.134C122.93,-195.311 131.633,-184.278 140,-174 147.732,-164.503 155.978,-154.637 164.222,-144.93"/>
<ellipse fill="none" stroke="#8ab67a" cx="112.09" cy="-209.309" rx="4.00002" ry="4.00002"/>
<polygon fill="#8ab67a" stroke="#8ab67a" points="164.334,-144.799 174.248,-140.111 167.579,-140.995 170.824,-137.191 170.824,-137.191 170.824,-137.191 167.579,-140.995 167.4,-134.27 164.334,-144.799 164.334,-144.799"/>
</g>
<!-- Unit -->
<g id="node3" class="node"><title>Unit</title>
<path fill="none" stroke="black" d="M255.5,-408.5C255.5,-408.5 362.5,-408.5 362.5,-408.5 368.5,-408.5 374.5,-414.5 374.5,-420.5 374.5,-420.5 374.5,-517.5 374.5,-517.5 374.5,-523.5 368.5,-529.5 362.5,-529.5 362.5,-529.5 255.5,-529.5 255.5,-529.5 249.5,-529.5 243.5,-523.5 243.5,-517.5 243.5,-517.5 243.5,-420.5 243.5,-420.5 243.5,-414.5 249.5,-408.5 255.5,-408.5"/>
<text text-anchor="middle" x="309" y="-514.3" font-family="Times,serif" font-size="14.00">Unit</text>
<polyline fill="none" stroke="black" points="243.5,-506.5 374.5,-506.5 "/>
<text text-anchor="start" x="251.5" y="-491.3" font-family="Times,serif" font-size="14.00">id :INTEGER</text>
<text text-anchor="start" x="251.5" y="-476.3" font-family="Times,serif" font-size="14.00">name :varchar</text>
<text text-anchor="start" x="251.5" y="-461.3" font-family="Times,serif" font-size="14.00">created_at :datetime</text>
<text text-anchor="start" x="251.5" y="-446.3" font-family="Times,serif" font-size="14.00">updated_at :datetime</text>
<text text-anchor="start" x="251.5" y="-431.3" font-family="Times,serif" font-size="14.00">user_id :integer</text>
<text text-anchor="start" x="251.5" y="-416.3" font-family="Times,serif" font-size="14.00">policy_id :integer</text>
</g>
<!-- Policy -->
<g id="node4" class="node"><title>Policy</title>
<path fill="none" stroke="black" d="M161,-197.5C161,-197.5 283,-197.5 283,-197.5 289,-197.5 295,-203.5 295,-209.5 295,-209.5 295,-336.5 295,-336.5 295,-342.5 289,-348.5 283,-348.5 283,-348.5 161,-348.5 161,-348.5 155,-348.5 149,-342.5 149,-336.5 149,-336.5 149,-209.5 149,-209.5 149,-203.5 155,-197.5 161,-197.5"/>
<text text-anchor="middle" x="222" y="-333.3" font-family="Times,serif" font-size="14.00">Policy</text>
<polyline fill="none" stroke="black" points="149,-325.5 295,-325.5 "/>
<text text-anchor="start" x="157" y="-310.3" font-family="Times,serif" font-size="14.00">id :INTEGER</text>
<text text-anchor="start" x="157" y="-295.3" font-family="Times,serif" font-size="14.00">first_day :datetime</text>
<text text-anchor="start" x="157" y="-280.3" font-family="Times,serif" font-size="14.00">last_day :datetime</text>
<text text-anchor="start" x="157" y="-265.3" font-family="Times,serif" font-size="14.00">fine_amount :integer</text>
<text text-anchor="start" x="157" y="-250.3" font-family="Times,serif" font-size="14.00">fine_days :datetime</text>
<text text-anchor="start" x="157" y="-235.3" font-family="Times,serif" font-size="14.00">market_sell_by :integer</text>
<text text-anchor="start" x="157" y="-220.3" font-family="Times,serif" font-size="14.00">created_at :datetime</text>
<text text-anchor="start" x="157" y="-205.3" font-family="Times,serif" font-size="14.00">updated_at :datetime</text>
</g>
<!-- Unit&#45;&gt;Policy -->
<g id="edge2" class="edge"><title>Unit&#45;&gt;Policy</title>
<path fill="none" stroke="#e8103d" d="M278.893,-400.866C272.485,-386.575 265.646,-371.325 259.013,-356.535"/>
<ellipse fill="none" stroke="#e8103d" cx="280.669" cy="-404.825" rx="4.00002" ry="4.00002"/>
<ellipse fill="#e8103d" stroke="#e8103d" cx="257.203" cy="-352.5" rx="4.00002" ry="4.00002"/>
</g>
<!-- User -->
<g id="node6" class="node"><title>User</title>
<path fill="none" stroke="black" d="M325,-175C325,-175 467,-175 467,-175 473,-175 479,-181 479,-187 479,-187 479,-359 479,-359 479,-365 473,-371 467,-371 467,-371 325,-371 325,-371 319,-371 313,-365 313,-359 313,-359 313,-187 313,-187 313,-181 319,-175 325,-175"/>
<text text-anchor="middle" x="396" y="-355.8" font-family="Times,serif" font-size="14.00">User</text>
<polyline fill="none" stroke="black" points="313,-348 479,-348 "/>
<text text-anchor="start" x="321" y="-332.8" font-family="Times,serif" font-size="14.00">id :INTEGER</text>
<text text-anchor="start" x="321" y="-317.8" font-family="Times,serif" font-size="14.00">first_name :varchar</text>
<text text-anchor="start" x="321" y="-302.8" font-family="Times,serif" font-size="14.00">last_name :varchar</text>
<text text-anchor="start" x="321" y="-287.8" font-family="Times,serif" font-size="14.00">email :varchar</text>
<text text-anchor="start" x="321" y="-272.8" font-family="Times,serif" font-size="14.00">permissions :integer</text>
<text text-anchor="start" x="321" y="-257.8" font-family="Times,serif" font-size="14.00">created_at :datetime</text>
<text text-anchor="start" x="321" y="-242.8" font-family="Times,serif" font-size="14.00">updated_at :datetime</text>
<text text-anchor="start" x="321" y="-227.8" font-family="Times,serif" font-size="14.00">password :varchar</text>
<text text-anchor="start" x="321" y="-212.8" font-family="Times,serif" font-size="14.00">password_digest :varchar</text>
<text text-anchor="start" x="321" y="-197.8" font-family="Times,serif" font-size="14.00">sent_confirmation :boolean</text>
<text text-anchor="start" x="321" y="-182.8" font-family="Times,serif" font-size="14.00">has_confirmed :boolean</text>
</g>
<!-- Unit&#45;&gt;User -->
<g id="edge3" class="edge"><title>Unit&#45;&gt;User</title>
<path fill="none" stroke="#a3fa23" d="M339.093,-400.895C342.046,-394.311 345.09,-387.523 348.163,-380.671"/>
<ellipse fill="none" stroke="#a3fa23" cx="337.331" cy="-404.825" rx="4.00002" ry="4.00002"/>
<polygon fill="#a3fa23" stroke="#a3fa23" points="348.274,-380.423 356.472,-373.14 350.32,-375.861 352.366,-371.299 352.366,-371.299 352.366,-371.299 350.32,-375.861 348.26,-369.457 348.274,-380.423 348.274,-380.423"/>
</g>
<!-- User&#45;&gt;Shift -->
<g id="edge4" class="edge"><title>User&#45;&gt;Shift</title>
<path fill="none" stroke="#614b90" d="M311.007,-168.575C304.58,-160.754 298.169,-152.952 291.928,-145.358"/>
<ellipse fill="none" stroke="#614b90" cx="313.621" cy="-171.755" rx="4.00002" ry="4.00002"/>
<polygon fill="#614b90" stroke="#614b90" points="291.579,-144.933 288.706,-134.35 288.404,-141.07 285.23,-137.207 285.23,-137.207 285.23,-137.207 288.404,-141.07 281.753,-140.064 291.579,-144.933 291.579,-144.933"/>
</g>
</g>
</svg>
