<?xml version="1.0" encoding="UTF-8" standalone="no"?>
<!DOCTYPE svg PUBLIC "-//W3C//DTD SVG 1.1//EN"
 "http://www.w3.org/Graphics/SVG/1.1/DTD/svg11.dtd">
<!-- Generated by graphviz version 2.36.0 (20140111.2315)
 -->
<!-- Title: models_diagram Pages: 1 -->
<svg width="332pt" height="230pt"
 viewBox="0.00 0.00 332.00 230.00" xmlns="http://www.w3.org/2000/svg" xmlns:xlink="http://www.w3.org/1999/xlink">
<g id="graph0" class="graph" transform="scale(1 1) rotate(0) translate(4 226)">
<title>models_diagram</title>
<polygon fill="none" stroke="none" points="-4,4 -4,-226 328,-226 328,4 -4,4"/>
<!-- _diagram_info -->
<g id="node1" class="node"><title>_diagram_info</title>
<text text-anchor="start" x="7" y="-207.6" font-family="Times,serif" font-size="13.00">Models diagram</text>
<text text-anchor="start" x="7" y="-193.6" font-family="Times,serif" font-size="13.00">Date: Mar 17 2016 &#45; 21:17</text>
<text text-anchor="start" x="7" y="-179.6" font-family="Times,serif" font-size="13.00">Migration version: 20160317211305</text>
<text text-anchor="start" x="7" y="-165.6" font-family="Times,serif" font-size="13.00">Generated by RailRoady 1.4.2</text>
<text text-anchor="start" x="7" y="-151.6" font-family="Times,serif" font-size="13.00">http://railroady.prestonlee.com</text>
</g>
<!-- Metashift -->
<g id="node2" class="node"><title>Metashift</title>
<ellipse fill="none" stroke="black" cx="123" cy="-90" rx="44.271" ry="18"/>
<text text-anchor="middle" x="123" y="-86.3" font-family="Times,serif" font-size="14.00">Metashift</text>
</g>
<!-- Shift -->
<g id="node5" class="node"><title>Shift</title>
<ellipse fill="none" stroke="black" cx="210" cy="-18" rx="27.4223" ry="18"/>
<text text-anchor="middle" x="210" y="-14.3" font-family="Times,serif" font-size="14.00">Shift</text>
</g>
<!-- Metashift&#45;&gt;Shift -->
<g id="edge1" class="edge"><title>Metashift&#45;&gt;Shift</title>
<path fill="none" stroke="#a4f96c" d="M148.693,-68.3276C160.316,-58.9753 173.99,-47.9734 185.471,-38.7358"/>
<ellipse fill="none" stroke="#a4f96c" cx="145.425" cy="-70.9572" rx="4.00002" ry="4.00002"/>
<polygon fill="#a4f96c" stroke="#a4f96c" points="185.592,-38.6388 196.204,-35.876 189.487,-35.5044 193.383,-32.37 193.383,-32.37 193.383,-32.37 189.487,-35.5044 190.562,-28.8639 185.592,-38.6388 185.592,-38.6388"/>
</g>
<!-- Unit -->
<g id="node3" class="node"><title>Unit</title>
<ellipse fill="none" stroke="black" cx="258" cy="-183" rx="27" ry="18"/>
<text text-anchor="middle" x="258" y="-179.3" font-family="Times,serif" font-size="14.00">Unit</text>
</g>
<!-- Policy -->
<g id="node4" class="node"><title>Policy</title>
<ellipse fill="none" stroke="black" cx="219" cy="-90" rx="33.2209" ry="18"/>
<text text-anchor="middle" x="219" y="-86.3" font-family="Times,serif" font-size="14.00">Policy</text>
</g>
<!-- Unit&#45;&gt;Policy -->
<g id="edge2" class="edge"><title>Unit&#45;&gt;Policy</title>
<path fill="none" stroke="#a3b7ab" d="M247.682,-157.925C241.995,-144.654 234.956,-128.231 229.275,-114.976"/>
<ellipse fill="none" stroke="#a3b7ab" cx="249.271" cy="-161.633" rx="4.00002" ry="4.00002"/>
<ellipse fill="#a3b7ab" stroke="#a3b7ab" cx="227.684" cy="-111.262" rx="4.00002" ry="4.00002"/>
</g>
<!-- User -->
<g id="node6" class="node"><title>User</title>
<ellipse fill="none" stroke="black" cx="297" cy="-90" rx="26.949" ry="18"/>
<text text-anchor="middle" x="297" y="-86.3" font-family="Times,serif" font-size="14.00">User</text>
</g>
<!-- Unit&#45;&gt;User -->
<g id="edge3" class="edge"><title>Unit&#45;&gt;User</title>
<path fill="none" stroke="#08547d" d="M268.318,-157.925C273.74,-145.274 280.389,-129.759 285.92,-116.854"/>
<ellipse fill="none" stroke="#08547d" cx="266.729" cy="-161.633" rx="4.00002" ry="4.00002"/>
<polygon fill="#08547d" stroke="#08547d" points="285.953,-116.776 294.028,-109.358 287.923,-112.181 289.892,-107.585 289.892,-107.585 289.892,-107.585 287.923,-112.181 285.756,-105.812 285.953,-116.776 285.953,-116.776"/>
</g>
<!-- User&#45;&gt;Shift -->
<g id="edge4" class="edge"><title>User&#45;&gt;Shift</title>
<path fill="none" stroke="#dcbc86" d="M273.735,-70.2812C261.696,-60.5942 246.995,-48.7661 234.747,-38.9117"/>
<ellipse fill="none" stroke="#dcbc86" cx="277.109" cy="-72.9958" rx="4.00002" ry="4.00002"/>
<polygon fill="#dcbc86" stroke="#dcbc86" points="234.514,-38.7241 229.544,-28.9492 230.619,-35.5897 226.723,-32.4553 226.723,-32.4553 226.723,-32.4553 230.619,-35.5897 223.902,-35.9613 234.514,-38.7241 234.514,-38.7241"/>
</g>
</g>
</svg>
